{
  "accessors": [
    {
      "bufferView": 2,
      "componentType": 5126,
      "count": 65532,
      "max": [
        3661.431884765625,
        -0.0,
        288.4295654296875
      ],
      "min": [
        3513.27392578125,
        -4.028240203857422,
        237.97348022460938
      ],
      "type": "VEC3"
    },
    {
      "bufferView": 2,
      "byteOffset": 786384,
      "componentType": 5126,
      "count": 65532,
      "max": [
        1.0,
        1.0,
        1.0
      ],
      "min": [
        -1.0,
        -1.0,
        -1.0
      ],
      "type": "VEC3"
    },
    {
      "bufferView": 1,
      "componentType": 5126,
      "count": 65532,
      "max": [
        85.05449676513672,
        59.7835807800293
      ],
      "min": [
        -85.18193817138672,
        -56.249820709228516
      ],
      "type": "VEC2"
    },
    {
      "bufferView": 0,
      "componentType": 5125,
      "count": 160506,
      "type": "SCALAR"
    },
    {
      "bufferView": 2,
      "byteOffset": 1572768,
      "componentType": 5126,
      "count": 65532,
      "max": [
        3660.663818359375,
        -0.0,
        386.5114440917969
      ],
      "min": [
        3297.47314453125,
        -3.9166600704193115,
        -80.5630111694336
      ],
      "type": "VEC3"
    },
    {
      "bufferView": 2,
      "byteOffset": 2359152,
      "componentType": 5126,
      "count": 65532,
      "max": [
        1.0,
        1.0,
        1.0
      ],
      "min": [
        -1.0,
        -1.0,
        -1.0
      ],
      "type": "VEC3"
    },
    {
      "bufferView": 1,
      "byteOffset": 524256,
      "componentType": 5126,
      "count": 65532,
      "max": [
        390.87017822265625,
        342.4577331542969
      ],
      "min": [
        -390.87017822265625,
        -354.2889709472656
      ],
      "type": "VEC2"
    },
    {
      "bufferView": 0,
      "byteOffset": 642024,
      "componentType": 5125,
      "count": 162030,
      "type": "SCALAR"
    },
    {
      "bufferView": 2,
      "byteOffset": 3145536,
      "componentType": 5126,
      "count": 65532,
      "max": [
        3621.5830078125,
        -0.0,
        410.298583984375
      ],
      "min": [
        3268.817138671875,
        -3.277440071105957,
        81.59062957763672
      ],
      "type": "VEC3"
    },
    {
      "bufferView": 2,
      "byteOffset": 3931920,
      "componentType": 5126,
      "count": 65532,
      "max": [
        1.0,
        1.0,
        1.0
      ],
      "min": [
        -1.0,
        -1.0,
        -1.0
      ],
      "type": "VEC3"
    },
    {
      "bufferView": 1,
      "byteOffset": 1048512,
      "componentType": 5126,
      "count": 65532,
      "max": [
        271.89935302734375,
        225.5722198486328
      ],
      "min": [
        -271.19268798828125,
        -271.61279296875
      ],
      "type": "VEC2"
    },
    {
      "bufferView": 0,
      "byteOffset": 1290144,
      "componentType": 5125,
      "count": 176469,
      "type": "SCALAR"
    },
    {
      "bufferView": 2,
      "byteOffset": 4718304,
      "componentType": 5126,
      "count": 65532,
      "max": [
        3662.6318359375,
        -0.0,
        409.6094055175781
      ],
      "min": [
        3254.20947265625,
        -2.7723000049591064,
        -81.5160903930664
      ],
      "type": "VEC3"
    },
    {
      "bufferView": 2,
      "byteOffset": 5504688,
      "componentType": 5126,
      "count": 65532,
      "max": [
        1.0,
        1.0,
        1.0
      ],
      "min": [
        -1.0,
        -1.0,
        -1.0
      ],
      "type": "VEC3"
    },
    {
      "bufferView": 1,
      "byteOffset": 1572768,
      "componentType": 5126,
      "count": 65532,
      "max": [
        143.84268188476563,
        144.71046447753906
      ],
      "min": [
        -143.84268188476563,
        -144.71046447753906
      ],
      "type": "VEC2"
    },
    {
      "bufferView": 0,
      "byteOffset": 1996020,
      "componentType": 5125,
      "count": 206622,
      "type": "SCALAR"
    },
    {
      "bufferView": 2,
      "byteOffset": 6291072,
      "componentType": 5126,
      "count": 65532,
      "max": [
        3642.091064453125,
        -0.0,
        435.9241638183594
      ],
      "min": [
        3270.86083984375,
        -3.3583900928497314,
        -81.64102172851563
      ],
      "type": "VEC3"
    },
    {
      "bufferView": 2,
      "byteOffset": 7077456,
      "componentType": 5126,
      "count": 65532,
      "max": [
        1.0,
        1.0,
        1.0
      ],
      "min": [
        -1.0,
        -1.0,
        -1.0
      ],
      "type": "VEC3"
    },
    {
      "bufferView": 1,
      "byteOffset": 2097024,
      "componentType": 5126,
      "count": 65532,
      "max": [
        187.68203735351563,
        106.95365905761719
      ],
      "min": [
        -137.85047912597656,
        -106.95365905761719
      ],
      "type": "VEC2"
    },
    {
      "bufferView": 0,
      "byteOffset": 2822508,
      "componentType": 5125,
      "count": 187665,
      "type": "SCALAR"
    },
    {
      "bufferView": 2,
      "byteOffset": 7863840,
      "componentType": 5126,
      "count": 65532,
      "max": [
        3605.873291015625,
        -0.0,
        394.3016052246094
      ],
      "min": [
        3256.14697265625,
        -3.63346004486084,
        70.27436828613281
      ],
      "type": "VEC3"
    },
    {
      "bufferView": 2,
      "byteOffset": 8650224,
      "componentType": 5126,
      "count": 65532,
      "max": [
        1.0,
        1.0,
        1.0
      ],
      "min": [
        -1.0,
        -1.0,
        -1.0
      ],
      "type": "VEC3"
    },
    {
      "bufferView": 1,
      "byteOffset": 2621280,
      "componentType": 5126,
      "count": 65532,
      "max": [
        105.61662292480469,
        64.86695861816406
      ],
      "min": [
        -105.61662292480469,
        -73.30680084228516
      ],
      "type": "VEC2"
    },
    {
      "bufferView": 0,
      "byteOffset": 3573168,
      "componentType": 5125,
      "count": 210636,
      "type": "SCALAR"
    },
    {
      "bufferView": 2,
      "byteOffset": 9436608,
      "componentType": 5126,
      "count": 49205,
      "max": [
        3391.79443359375,
        -0.0,
        398.0724182128906
      ],
      "min": [
        3254.070068359375,
        -3.63346004486084,
        81.59062957763672
      ],
      "type": "VEC3"
    },
    {
      "bufferView": 2,
      "byteOffset": 10027068,
      "componentType": 5126,
      "count": 49205,
      "max": [
        1.0,
        1.0,
        1.0
      ],
      "min": [
        -1.0,
        -1.0,
        -1.0
      ],
      "type": "VEC3"
    },
    {
      "bufferView": 1,
      "byteOffset": 3145536,
      "componentType": 5126,
      "count": 49205,
      "max": [
        390.87017822265625,
        342.4577331542969
      ],
      "min": [
        -390.87017822265625,
        -354.2889709472656
      ],
      "type": "VEC2"
    },
    {
      "bufferView": 0,
      "byteOffset": 4415712,
      "componentType": 5125,
      "count": 129174,
      "type": "SCALAR"
    },
    {
      "bufferView": 2,
      "byteOffset": 10617528,
      "componentType": 5126,
      "count": 59862,
      "max": [
        3565.989990234375,
        0.009030000306665897,
        434.6483154296875
      ],
      "min": [
        3254.20947265625,
        -13.123350143432617,
        -83.8348617553711
      ],
      "type": "VEC3"
    },
    {
      "bufferView": 2,
      "byteOffset": 11335872,
      "componentType": 5126,
      "count": 59862,
      "max": [
        1.0,
        1.0,
        1.0
      ],
      "min": [
        -1.0,
        -1.0,
        -1.0
      ],
      "type": "VEC3"
    },
    {
      "bufferView": 1,
      "byteOffset": 3539176,
      "componentType": 5126,
      "count": 59862,
      "max": [
        123.81590270996094,
        123.76445007324219
      ],
      "min": [
        -123.81590270996094,
        -163.56134033203125
      ],
      "type": "VEC2"
    },
    {
      "bufferView": 0,
      "byteOffset": 4932408,
      "componentType": 5125,
      "count": 130140,
      "type": "SCALAR"
    },
    {
      "bufferView": 2,
      "byteOffset": 12054216,
      "componentType": 5126,
      "count": 10569,
      "max": [
        3659.95068359375,
        -0.0,
        579.775634765625
      ],
      "min": [
        3262.24169921875,
        -7.061709880828857,
        -82.2547607421875
      ],
      "type": "VEC3"
    },
    {
      "bufferView": 2,
      "byteOffset": 12181044,
      "componentType": 5126,
      "count": 10569,
      "max": [
        1.0,
        1.0,
        1.0
      ],
      "min": [
        -1.0,
        -1.0,
        -1.0
      ],
      "type": "VEC3"
    },
    {
      "bufferView": 0,
      "byteOffset": 5452968,
      "componentType": 5125,
      "count": 26412,
      "type": "SCALAR"
    },
    {
      "bufferView": 2,
      "byteOffset": 12307872,
      "componentType": 5126,
      "count": 284,
      "max": [
        3649.172607421875,
        0.8202000260353088,
        578.4678955078125
      ],
      "min": [
        3264.580322265625,
        -3.2305800914764404,
        -81.69055938720703
      ],
      "type": "VEC3"
    },
    {
      "bufferView": 2,
      "byteOffset": 12311280,
      "componentType": 5126,
      "count": 284,
      "max": [
        1.0,
        1.0,
        1.0
      ],
      "min": [
        -1.0,
        -1.0,
        -1.0
      ],
      "type": "VEC3"
    },
    {
      "bufferView": 0,
      "byteOffset": 5558616,
      "componentType": 5125,
      "count": 522,
      "type": "SCALAR"
    },
    {
      "bufferView": 2,
      "byteOffset": 12314688,
      "componentType": 5126,
      "count": 88,
      "max": [
        3543.73779296875,
        -0.0,
        -45.215999603271484
      ],
      "min": [
        3543.23779296875,
        -0.6183300018310547,
        -45.607200622558594
      ],
      "type": "VEC3"
    },
    {
      "bufferView": 2,
      "byteOffset": 12315744,
      "componentType": 5126,
      "count": 88,
      "max": [
        1.0,
        0.9662973284721375,
        0.9658141136169434
      ],
      "min": [
        -1.0,
        -0.965903639793396,
        -0.9659463763237
      ],
      "type": "VEC3"
    },
    {
      "bufferView": 0,
      "byteOffset": 5560704,
      "componentType": 5125,
      "count": 168,
      "type": "SCALAR"
    },
    {
      "bufferView": 2,
      "byteOffset": 12316800,
      "componentType": 5126,
      "count": 65532,
      "max": [
        3660.271484375,
        1.0,
        289.1050109863281
      ],
      "min": [
        3254.199951171875,
        -3.6323399543762207,
        -140.29945373535156
      ],
      "type": "VEC3"
    },
    {
      "bufferView": 2,
      "byteOffset": 13103184,
      "componentType": 5126,
      "count": 65532,
      "max": [
        1.0,
        1.0,
        1.0
      ],
      "min": [
        -1.0,
        -1.0,
        -1.0
      ],
      "type": "VEC3"
    },
    {
      "bufferView": 0,
      "byteOffset": 5561376,
      "componentType": 5125,
      "count": 184191,
      "type": "SCALAR"
    },
    {
      "bufferView": 2,
      "byteOffset": 13889568,
      "componentType": 5126,
      "count": 65532,
      "max": [
        3622.74072265625,
        0.3246699869632721,
        621.099853515625
      ],
      "min": [
        3230.894287109375,
        -9.022299766540527,
        -126.51602935791016
      ],
      "type": "VEC3"
    },
    {
      "bufferView": 2,
      "byteOffset": 14675952,
      "componentType": 5126,
      "count": 65532,
      "max": [
        1.0,
        1.0,
        1.0
      ],
      "min": [
        -1.0,
        -1.0,
        -1.0
      ],
      "type": "VEC3"
    },
    {
      "bufferView": 0,
      "byteOffset": 6298140,
      "componentType": 5125,
      "count": 183705,
      "type": "SCALAR"
    },
    {
      "bufferView": 2,
      "byteOffset": 15462336,
      "componentType": 5126,
      "count": 65532,
      "max": [
        3661.322509765625,
        1.0,
        566.6572265625
      ],
      "min": [
        3257.610107421875,
        -15.723250389099121,
        -153.2418975830078
      ],
      "type": "VEC3"
    },
    {
      "bufferView": 2,
      "byteOffset": 16248720,
      "componentType": 5126,
      "count": 65532,
      "max": [
        1.0,
        1.0,
        1.0
      ],
      "min": [
        -1.0,
        -1.0,
        -1.0
      ],
      "type": "VEC3"
    },
    {
      "bufferView": 0,
      "byteOffset": 7032960,
      "componentType": 5125,
      "count": 170835,
      "type": "SCALAR"
    },
    {
      "bufferView": 2,
      "byteOffset": 17035104,
      "componentType": 5126,
      "count": 1010,
      "max": [
        3381.341552734375,
        -0.2447900027036667,
        -115.27667236328125
      ],
      "min": [
        3349.0205078125,
        -3.5,
        -115.48887634277344
      ],
      "type": "VEC3"
    },
    {
      "bufferView": 2,
      "byteOffset": 17047224,
      "componentType": 5126,
      "count": 1010,
      "max": [
        1.0,
        1.0,
        0.912915825843811
      ],
      "min": [
        -1.0,
        -1.0,
        -0.9151416420936584
      ],
      "type": "VEC3"
    },
    {
      "bufferView": 0,
      "byteOffset": 7716300,
      "componentType": 5125,
      "count": 2946,
      "type": "SCALAR"
    },
    {
      "bufferView": 2,
      "byteOffset": 17059344,
      "componentType": 5126,
      "count": 65532,
      "max": [
        3658.611328125,
        0.003920000046491623,
        556.9750366210938
      ],
      "min": [
        3254.5966796875,
        -15.723250389099121,
        -125.73272705078125
      ],
      "type": "VEC3"
    },
    {
      "bufferView": 2,
      "byteOffset": 17845728,
      "componentType": 5126,
      "count": 65532,
      "max": [
        1.0,
        1.0,
        1.0
      ],
      "min": [
        -1.0,
        -1.0,
        -1.0
      ],
      "type": "VEC3"
    },
    {
      "bufferView": 0,
      "byteOffset": 7728084,
      "componentType": 5125,
      "count": 189414,
      "type": "SCALAR"
    },
    {
      "bufferView": 2,
      "byteOffset": 18632112,
      "componentType": 5126,
      "count": 19036,
      "max": [
        3660.23828125,
        -0.0,
        433.4670715332031
      ],
      "min": [
        3264.84521484375,
        -15.723250389099121,
        -86.93953704833984
      ],
      "type": "VEC3"
    },
    {
      "bufferView": 2,
      "byteOffset": 18860544,
      "componentType": 5126,
      "count": 19036,
      "max": [
        1.0,
        1.0,
        1.0
      ],
      "min": [
        -1.0,
        -1.0,
        -1.0
      ],
      "type": "VEC3"
    },
    {
      "bufferView": 0,
      "byteOffset": 8485740,
      "componentType": 5125,
      "count": 51351,
      "type": "SCALAR"
    },
    {
      "bufferView": 2,
      "byteOffset": 19088976,
      "componentType": 5126,
      "count": 24,
      "max": [
        3525.52685546875,
        -0.0,
        -56.7005500793457
      ],
      "min": [
        3523.09912109375,
        -2.956089973449707,
        -57.35670852661133
      ],
      "type": "VEC3"
    },
    {
      "bufferView": 2,
      "byteOffset": 19089264,
      "componentType": 5126,
      "count": 24,
      "max": [
        1.0,
        1.0,
        1.0
      ],
      "min": [
        -1.0,
        -1.0,
        -1.0
      ],
      "type": "VEC3"
    },
    {
      "bufferView": 0,
      "byteOffset": 8691144,
      "componentType": 5125,
      "count": 36,
      "type": "SCALAR"
    },
    {
      "bufferView": 2,
      "byteOffset": 19089552,
      "componentType": 5126,
      "count": 65532,
      "max": [
        3653.47021484375,
        0.5,
        580.0244750976563
      ],
      "min": [
        3258.86767578125,
        -6.313990116119385,
        -127.1597900390625
      ],
      "type": "VEC3"
    },
    {
      "bufferView": 2,
      "byteOffset": 19875936,
      "componentType": 5126,
      "count": 65532,
      "max": [
        1.0,
        1.0,
        1.0
      ],
      "min": [
        -1.0,
        -1.0,
        -1.0
      ],
      "type": "VEC3"
    },
    {
      "bufferView": 0,
      "byteOffset": 8691288,
      "componentType": 5125,
      "count": 184896,
      "type": "SCALAR"
    },
    {
      "bufferView": 2,
      "byteOffset": 20662320,
      "componentType": 5126,
      "count": 65532,
      "max": [
        3658.850830078125,
        1.0,
        556.5439453125
      ],
      "min": [
        3257.494384765625,
        -9.0,
        -154.86444091796875
      ],
      "type": "VEC3"
    },
    {
      "bufferView": 2,
      "byteOffset": 21448704,
      "componentType": 5126,
      "count": 65532,
      "max": [
        1.0,
        1.0,
        1.0
      ],
      "min": [
        -1.0,
        -1.0,
        -1.0
      ],
      "type": "VEC3"
    },
    {
      "bufferView": 0,
      "byteOffset": 9430872,
      "componentType": 5125,
      "count": 175092,
      "type": "SCALAR"
    },
    {
      "bufferView": 2,
      "byteOffset": 22235088,
      "componentType": 5126,
      "count": 65532,
      "max": [
        3387.075439453125,
        0.005309999920427799,
        409.6057434082031
      ],
      "min": [
        3272.269287109375,
        -2.741230010986328,
        373.4642333984375
      ],
      "type": "VEC3"
    },
    {
      "bufferView": 2,
      "byteOffset": 23021472,
      "componentType": 5126,
      "count": 65532,
      "max": [
        1.0,
        1.0,
        1.0
      ],
      "min": [
        -1.0,
        -1.0,
        -1.0
      ],
      "type": "VEC3"
    },
    {
      "bufferView": 0,
      "byteOffset": 10131240,
      "componentType": 5125,
      "count": 190179,
      "type": "SCALAR"
    },
    {
      "bufferView": 2,
      "byteOffset": 23807856,
      "componentType": 5126,
      "count": 65532,
      "max": [
        3662.4736328125,
        0.010409999638795853,
        579.6089477539063
      ],
      "min": [
        3255.251220703125,
        -8.083919525146484,
        -126.51602935791016
      ],
      "type": "VEC3"
    },
    {
      "bufferView": 2,
      "byteOffset": 24594240,
      "componentType": 5126,
      "count": 65532,
      "max": [
        1.0,
        1.0,
        1.0
      ],
      "min": [
        -1.0,
        -1.0,
        -1.0
      ],
      "type": "VEC3"
    },
    {
      "bufferView": 0,
      "byteOffset": 10891956,
      "componentType": 5125,
      "count": 137394,
      "type": "SCALAR"
    },
    {
      "bufferView": 2,
      "byteOffset": 25380624,
      "componentType": 5126,
      "count": 4958,
      "max": [
        3554.325927734375,
        1.0,
        394.25994873046875
      ],
      "min": [
        3254.0126953125,
        -3.63346004486084,
        -154.7942657470703
      ],
      "type": "VEC3"
    },
    {
      "bufferView": 2,
      "byteOffset": 25440120,
      "componentType": 5126,
      "count": 4958,
      "max": [
        1.0,
        1.0,
        1.0
      ],
      "min": [
        -1.0,
        -1.0,
        -1.0
      ],
      "type": "VEC3"
    },
    {
      "bufferView": 0,
      "byteOffset": 11441532,
      "componentType": 5125,
      "count": 11619,
      "type": "SCALAR"
    },
    {
      "bufferView": 2,
      "byteOffset": 25499616,
      "componentType": 5126,
      "count": 4366,
      "max": [
        3660.163330078125,
        -0.0,
        77.8466796875
      ],
      "min": [
        3544.628173828125,
        -9.022299766540527,
        -126.22846221923828
      ],
      "type": "VEC3"
    },
    {
      "bufferView": 2,
      "byteOffset": 25552008,
      "componentType": 5126,
      "count": 4366,
      "max": [
        0.9999600052833557,
        1.0,
        1.0
      ],
      "min": [
        -0.9999924302101135,
        -1.0,
        -1.0
      ],
      "type": "VEC3"
    },
    {
      "bufferView": 0,
      "byteOffset": 11488008,
      "componentType": 5125,
      "count": 13374,
      "type": "SCALAR"
    },
    {
      "bufferView": 2,
      "byteOffset": 25604400,
      "componentType": 5126,
      "count": 65532,
      "max": [
        3661.244384765625,
        1.0,
        580.0244750976563
      ],
      "min": [
        3257.46435546875,
        -8.0,
        -115.34024810791016
      ],
      "type": "VEC3"
    },
    {
      "bufferView": 2,
      "byteOffset": 26390784,
      "componentType": 5126,
      "count": 65532,
      "max": [
        1.0,
        1.0,
        1.0
      ],
      "min": [
        -1.0,
        -1.0,
        -1.0
      ],
      "type": "VEC3"
    },
    {
      "bufferView": 0,
      "byteOffset": 11541504,
      "componentType": 5125,
      "count": 159129,
      "type": "SCALAR"
    },
    {
      "bufferView": 2,
      "byteOffset": 27177168,
      "componentType": 5126,
      "count": 65532,
      "max": [
        3653.0205078125,
        0.010409999638795853,
        568.2926635742188
      ],
      "min": [
        3262.077880859375,
        -6.984250068664551,
        -113.27044677734375
      ],
      "type": "VEC3"
    },
    {
      "bufferView": 2,
      "byteOffset": 27963552,
      "componentType": 5126,
      "count": 65532,
      "max": [
        1.0,
        1.0,
        1.0
      ],
      "min": [
        -1.0,
        -1.0,
        -1.0
      ],
      "type": "VEC3"
    },
    {
      "bufferView": 0,
      "byteOffset": 12178020,
      "componentType": 5125,
      "count": 174555,
      "type": "SCALAR"
    },
    {
      "bufferView": 2,
      "byteOffset": 28749936,
      "componentType": 5126,
      "count": 65532,
      "max": [
        3659.3154296875,
        0.03280000016093254,
        580.0088500976563
      ],
      "min": [
        3254.5693359375,
        -6.988180160522461,
        -80.87722778320313
      ],
      "type": "VEC3"
    },
    {
      "bufferView": 2,
      "byteOffset": 29536320,
      "componentType": 5126,
      "count": 65532,
      "max": [
        1.0,
        1.0,
        1.0
      ],
      "min": [
        -1.0,
        -1.0,
        -1.0
      ],
      "type": "VEC3"
    },
    {
      "bufferView": 0,
      "byteOffset": 12876240,
      "componentType": 5125,
      "count": 166473,
      "type": "SCALAR"
    },
    {
      "bufferView": 2,
      "byteOffset": 30322704,
      "componentType": 5126,
      "count": 65532,
      "max": [
        3654.686767578125,
        0.015420000068843365,
        434.94287109375
      ],
      "min": [
        3253.9970703125,
        -6.94379997253418,
        -80.27133178710938
      ],
      "type": "VEC3"
    },
    {
      "bufferView": 2,
      "byteOffset": 31109088,
      "componentType": 5126,
      "count": 65532,
      "max": [
        1.0,
        1.0,
        1.0
      ],
      "min": [
        -1.0,
        -1.0,
        -1.0
      ],
      "type": "VEC3"
    },
    {
      "bufferView": 0,
      "byteOffset": 13542132,
      "componentType": 5125,
      "count": 181935,
      "type": "SCALAR"
    },
    {
      "bufferView": 2,
      "byteOffset": 31895472,
      "componentType": 5126,
      "count": 13414,
      "max": [
        3659.95068359375,
        0.010409999638795853,
        433.9217224121094
      ],
      "min": [
        3257.6318359375,
        -8.48738956451416,
        -108.33100128173828
      ],
      "type": "VEC3"
    },
    {
      "bufferView": 2,
      "byteOffset": 32056440,
      "componentType": 5126,
      "count": 13414,
      "max": [
        1.0,
        1.0,
        1.0
      ],
      "min": [
        -1.0,
        -1.0,
        -1.0
      ],
      "type": "VEC3"
    },
    {
      "bufferView": 0,
      "byteOffset": 14269872,
      "componentType": 5125,
      "count": 31668,
      "type": "SCALAR"
    }
  ],
  "asset": {
    "extras": {
      "author": "ATD-London (https://sketchfab.com/ATD-London)",
      "license": "CC-BY-4.0 (http://creativecommons.org/licenses/by/4.0/)",
      "source": "https://sketchfab.com/3d-models/residential-furniture-622e5089f251459fb8fc321646432e22",
      "title": "Residential Furniture"
    },
    "generator": "Sketchfab-15.18.0",
    "version": "2.0"
  },
  "bufferViews": [
    {
      "buffer": 0,
      "byteLength": 14396544,
      "name": "floatBufferViews",
      "target": 34963
    },
    {
      "buffer": 0,
      "byteLength": 4018072,
      "byteOffset": 14396544,
      "byteStride": 8,
      "name": "floatBufferViews",
      "target": 34962
    },
    {
      "buffer": 0,
      "byteLength": 32217408,
      "byteOffset": 18414616,
      "byteStride": 12,
      "name": "floatBufferViews",
      "target": 34962
    }
  ],
  "buffers": [
    {
      "byteLength": 50632024,
      "uri": "scene.bin"
    }
  ],
  "materials": [
    {
      "doubleSided": true,
      "name": "Furnishings.Fabrics.Canvas.white.png",
      "pbrMetallicRoughness": {
        "baseColorFactor": [
          0.501961,
          0.501961,
          0.501961,
          1.0
        ],
        "metallicFactor": 0.0
      }
    },
    {
      "doubleSided": true,
      "name": "Furnishings.Fabrics.Linen.Beige.png",
      "pbrMetallicRoughness": {
        "baseColorFactor": [
          1.0,
          0.960784,
          0.941176,
          1.0
        ],
        "metallicFactor": 0.0
      }
    },
    {
      "alphaMode": "BLEND",
      "doubleSided": true,
      "name": "R0_G192_B128",
      "pbrMetallicRoughness": {
        "baseColorFactor": [
          0.0,
          0.501961,
          0.752941,
          0.1
        ],
        "metallicFactor": 0.0
      }
    },
    {
      "doubleSided": true,
      "name": "R120_G120_B120",
      "pbrMetallicRoughness": {
        "baseColorFactor": [
          0.470588,
          0.470588,
          0.470588,
          1.0
        ],
        "metallicFactor": 0.0
      }
    },
    {
      "doubleSided": true,
      "name": "R127_G127_B127",
      "pbrMetallicRoughness": {
        "baseColorFactor": [
          0.498039,
          0.498039,
          0.498039,
          1.0
        ],
        "metallicFactor": 0.0
      }
    },
    {
      "doubleSided": true,
      "name": "R150_G150_B150",
      "pbrMetallicRoughness": {
        "baseColorFactor": [
          0.588235,
          0.588235,
          0.588235,
          1.0
        ],
        "metallicFactor": 0.0
      }
    },
    {
      "doubleSided": true,
      "name": "R178_G178_B178",
      "pbrMetallicRoughness": {
        "baseColorFactor": [
          0.698039,
          0.698039,
          0.698039,
          1.0
        ],
        "metallicFactor": 0.0
      }
    },
    {
      "doubleSided": true,
      "name": "R214_G214_B214",
      "pbrMetallicRoughness": {
        "baseColorFactor": [
          0.839216,
          0.839216,
          0.839216,
          1.0
        ],
        "metallicFactor": 0.0
      }
    },
    {
      "doubleSided": true,
      "name": "R244_G244_B244",
      "pbrMetallicRoughness": {
        "baseColorFactor": [
          0.956863,
          0.956863,
          0.956863,
          1.0
        ],
        "metallicFactor": 0.0
      }
    },
    {
      "doubleSided": true,
      "name": "R249_G249_B249",
      "pbrMetallicRoughness": {
        "baseColorFactor": [
          0.976471,
          0.976471,
          0.976471,
          1.0
        ],
        "metallicFactor": 0.0
      }
    },
    {
      "doubleSided": true,
      "name": "R255_G255_B255",
      "pbrMetallicRoughness": {
        "metallicFactor": 0.0
      }
    }
  ],
  "meshes": [
    {
      "name": "Object_0",
      "primitives": [
        {
          "attributes": {
            "NORMAL": 1,
            "POSITION": 0,
            "TEXCOORD_0": 2
          },
          "indices": 3,
          "material": 0,
          "mode": 4
        }
      ]
    },
    {
      "name": "Object_1",
      "primitives": [
        {
          "attributes": {
            "NORMAL": 5,
            "POSITION": 4,
            "TEXCOORD_0": 6
          },
          "indices": 7,
          "material": 0,
          "mode": 4
        }
      ]
    },
    {
      "name": "Object_2",
      "primitives": [
        {
          "attributes": {
            "NORMAL": 9,
            "POSITION": 8,
            "TEXCOORD_0": 10
          },
          "indices": 11,
          "material": 0,
          "mode": 4
        }
      ]
    },
    {
      "name": "Object_3",
      "primitives": [
        {
          "attributes": {
            "NORMAL": 13,
            "POSITION": 12,
            "TEXCOORD_0": 14
          },
          "indices": 15,
          "material": 0,
          "mode": 4
        }
      ]
    },
    {
      "name": "Object_4",
      "primitives": [
        {
          "attributes": {
            "NORMAL": 17,
            "POSITION": 16,
            "TEXCOORD_0": 18
          },
          "indices": 19,
          "material": 0,
          "mode": 4
        }
      ]
    },
    {
      "name": "Object_5",
      "primitives": [
        {
          "attributes": {
            "NORMAL": 21,
            "POSITION": 20,
            "TEXCOORD_0": 22
          },
          "indices": 23,
          "material": 0,
          "mode": 4
        }
      ]
    },
    {
      "name": "Object_6",
      "primitives": [
        {
          "attributes": {
            "NORMAL": 25,
            "POSITION": 24,
            "TEXCOORD_0": 26
          },
          "indices": 27,
          "material": 0,
          "mode": 4
        }
      ]
    },
    {
      "name": "Object_7",
      "primitives": [
        {
          "attributes": {
            "NORMAL": 29,
            "POSITION": 28,
            "TEXCOORD_0": 30
          },
          "indices": 31,
          "material": 1,
          "mode": 4
        }
      ]
    },
    {
      "name": "Object_8",
      "primitives": [
        {
          "attributes": {
            "NORMAL": 33,
            "POSITION": 32
          },
          "indices": 34,
          "material": 2,
          "mode": 4
        }
      ]
    },
    {
      "name": "Object_9",
      "primitives": [
        {
          "attributes": {
            "NORMAL": 36,
            "POSITION": 35
          },
          "indices": 37,
          "material": 3,
          "mode": 4
        }
      ]
    },
    {
      "name": "Object_10",
      "primitives": [
        {
          "attributes": {
            "NORMAL": 39,
            "POSITION": 38
          },
          "indices": 40,
          "material": 4,
          "mode": 4
        }
      ]
    },
    {
      "name": "Object_11",
      "primitives": [
        {
          "attributes": {
            "NORMAL": 42,
            "POSITION": 41
          },
          "indices": 43,
          "material": 5,
          "mode": 4
        }
      ]
    },
    {
      "name": "Object_12",
      "primitives": [
        {
          "attributes": {
            "NORMAL": 45,
            "POSITION": 44
          },
          "indices": 46,
          "material": 5,
          "mode": 4
        }
      ]
    },
    {
      "name": "Object_13",
      "primitives": [
        {
          "attributes": {
            "NORMAL": 48,
            "POSITION": 47
          },
          "indices": 49,
          "material": 5,
          "mode": 4
        }
      ]
    },
    {
      "name": "Object_14",
      "primitives": [
        {
          "attributes": {
            "NORMAL": 51,
            "POSITION": 50
          },
          "indices": 52,
          "material": 5,
          "mode": 4
        }
      ]
    },
    {
      "name": "Object_15",
      "primitives": [
        {
          "attributes": {
            "NORMAL": 54,
            "POSITION": 53
          },
          "indices": 55,
          "material": 6,
          "mode": 4
        }
      ]
    },
    {
      "name": "Object_16",
      "primitives": [
        {
          "attributes": {
            "NORMAL": 57,
            "POSITION": 56
          },
          "indices": 58,
          "material": 6,
          "mode": 4
        }
      ]
    },
    {
      "name": "Object_17",
      "primitives": [
        {
          "attributes": {
            "NORMAL": 60,
            "POSITION": 59
          },
          "indices": 61,
          "material": 7,
          "mode": 4
        }
      ]
    },
    {
      "name": "Object_18",
      "primitives": [
        {
          "attributes": {
            "NORMAL": 63,
            "POSITION": 62
          },
          "indices": 64,
          "material": 8,
          "mode": 4
        }
      ]
    },
    {
      "name": "Object_19",
      "primitives": [
        {
          "attributes": {
            "NORMAL": 66,
            "POSITION": 65
          },
          "indices": 67,
          "material": 8,
          "mode": 4
        }
      ]
    },
    {
      "name": "Object_20",
      "primitives": [
        {
          "attributes": {
            "NORMAL": 69,
            "POSITION": 68
          },
          "indices": 70,
          "material": 8,
          "mode": 4
        }
      ]
    },
    {
      "name": "Object_21",
      "primitives": [
        {
          "attributes": {
            "NORMAL": 72,
            "POSITION": 71
          },
          "indices": 73,
          "material": 8,
          "mode": 4
        }
      ]
    },
    {
      "name": "Object_22",
      "primitives": [
        {
          "attributes": {
            "NORMAL": 75,
            "POSITION": 74
          },
          "indices": 76,
          "material": 8,
          "mode": 4
        }
      ]
    },
    {
      "name": "Object_23",
      "primitives": [
        {
          "attributes": {
            "NORMAL": 78,
            "POSITION": 77
          },
          "indices": 79,
          "material": 9,
          "mode": 4
        }
      ]
    },
    {
      "name": "Object_24",
      "primitives": [
        {
          "attributes": {
            "NORMAL": 81,
            "POSITION": 80
          },
          "indices": 82,
          "material": 10,
          "mode": 4
        }
      ]
    },
    {
      "name": "Object_25",
      "primitives": [
        {
          "attributes": {
            "NORMAL": 84,
            "POSITION": 83
          },
          "indices": 85,
          "material": 10,
          "mode": 4
        }
      ]
    },
    {
      "name": "Object_26",
      "primitives": [
        {
          "attributes": {
            "NORMAL": 87,
            "POSITION": 86
          },
          "indices": 88,
          "material": 10,
          "mode": 4
        }
      ]
    },
    {
      "name": "Object_27",
      "primitives": [
        {
          "attributes": {
            "NORMAL": 90,
            "POSITION": 89
          },
          "indices": 91,
          "material": 10,
          "mode": 4
        }
      ]
    },
    {
      "name": "Object_28",
      "primitives": [
        {
          "attributes": {
            "NORMAL": 93,
            "POSITION": 92
          },
          "indices": 94,
          "material": 10,
          "mode": 4
        }
      ]
    }
  ],
  "nodes": [
    {
      "children": [
        1
      ],
      "matrix": [
        1.0,
        0.0,
        0.0,
        0.0,
        0.0,
        -1.0,
        0.0,
        0.0,
        0.0,
        0.0,
        -1.0,
        0.0,
        0.0,
        0.0,
        0.0,
        1.0
      ],
      "name": "Sketchfab_model"
    },
    {
      "children": [
        2,
        3,
        4,
        5,
        6,
        7,
        8,
        9,
        10,
        11,
        12,
        13,
        14,
        15,
        16,
        17,
        18,
        19,
        20,
        21,
        22,
        23,
        24,
        25,
        26,
        27,
        28,
        29,
        30
      ],
      "name": "RESI FUNITURE .obj.cleaner.materialmerger.gles"
    },
    {
      "mesh": 0,
      "name": "Object_2"
    },
    {
      "mesh": 1,
      "name": "Object_3"
    },
    {
      "mesh": 2,
      "name": "Object_4"
    },
    {
      "mesh": 3,
      "name": "Object_5"
    },
    {
      "mesh": 4,
      "name": "Object_6"
    },
    {
      "mesh": 5,
      "name": "Object_7"
    },
    {
      "mesh": 6,
      "name": "Object_8"
    },
    {
      "mesh": 7,
      "name": "Object_9"
    },
    {
      "mesh": 8,
      "name": "Object_10"
    },
    {
      "mesh": 9,
      "name": "Object_11"
    },
    {
      "mesh": 10,
      "name": "Object_12"
    },
    {
      "mesh": 11,
      "name": "Object_13"
    },
    {
      "mesh": 12,
      "name": "Object_14"
    },
    {
      "mesh": 13,
      "name": "Object_15"
    },
    {
      "mesh": 14,
      "name": "Object_16"
    },
    {
      "mesh": 15,
      "name": "Object_17"
    },
    {
      "mesh": 16,
      "name": "Object_18"
    },
    {
      "mesh": 17,
      "name": "Object_19"
    },
    {
      "mesh": 18,
      "name": "Object_20"
    },
    {
      "mesh": 19,
      "name": "Object_21"
    },
    {
      "mesh": 20,
      "name": "Object_22"
    },
    {
      "mesh": 21,
      "name": "Object_23"
    },
    {
      "mesh": 22,
      "name": "Object_24"
    },
    {
      "mesh": 23,
      "name": "Object_25"
    },
    {
      "mesh": 24,
      "name": "Object_26"
    },
    {
      "mesh": 25,
      "name": "Object_27"
    },
    {
      "mesh": 26,
      "name": "Object_28"
    },
    {
      "mesh": 27,
      "name": "Object_29"
    },
    {
      "mesh": 28,
      "name": "Object_30"
    }
  ],
  "scene": 0,
  "scenes": [
    {
      "name": "Sketchfab_Scene",
      "nodes": [
        0
      ]
    }
  ]
}
